<svg xmlns="http://www.w3.org/2000/svg" width="64" height="64" viewBox="0 0 64 64" fill="none" stroke="#e8f1ff" stroke-width="3" stroke-linecap="round" stroke-linejoin="round">
  <path d="M24 50c-8 2-8-4-12-5" />
  <path d="M40 50v-8.5c0-2.3-0.8-3.8-1.7-4.6C42.5 35.9 46 33 46 26.5c0-3-1-5.6-2.7-7.6 0.7-2.4 0.6-5-0.2-6.9 0 0-2 0-6.1 2.7-1.8-0.5-3.8-0.7-5.9-0.7s-4.1 0.2-5.9 0.7C21.1 12 19 12 19 12c-0.8 1.9-0.9 4.5-0.2 6.9-1.7 2-2.8 4.6-2.8 7.6C16 33 19.5 36 25.7 37c-0.9 0.8-1.7 2.2-1.7 4.6V50" />
</svg>
