<svg xmlns="http://www.w3.org/2000/svg" width="64" height="64" viewBox="0 0 64 64" fill="none" stroke="#e8f1ff" stroke-width="3" stroke-linecap="round" stroke-linejoin="round">
  <path d="M16 40h24c5.5 0 10-4.5 10-10s-4.5-10-10-10c-1.6 0-3.2 0.4-4.6 1-2-5.6-7.1-9.6-13.2-9.6C12.7 11.4 7 17 7 24.1 7 29.6 9.8 34 13 36" fill="none"/>
  <path d="M22 48h24c5.5 0 10-3.8 10-8.5S51.5 31 46 31c-1.6 0-3.2 0.4-4.6 1-2-5-6.7-8.6-12-8.6-7 0-12.6 5.6-12.6 12.5 0 4 1.6 7.5 4.2 9.8z" fill="none" opacity="0.7"/>
</svg>
